<svg width="352" height="245" viewBox="0 0 352 245" fill="none" xmlns="http://www.w3.org/2000/svg">
<path d="M316.73 227.972H293.413V228.138H316.73V227.972Z" fill="#EBEBEB"/>
<path d="M233.179 229.777H227.061V229.943H233.179V229.777Z" fill="#EBEBEB"/>
<path d="M292.709 221.813H279.199V221.979H292.709V221.813Z" fill="#EBEBEB"/>
<path d="M67.3376 222.928H36.9318V223.094H67.3376V222.928Z" fill="#EBEBEB"/>
<path d="M78.0666 222.928H73.6102V223.094H78.0666V222.928Z" fill="#EBEBEB"/>
<path d="M158.506 225.728H92.5549V225.894H158.506V225.728Z" fill="#EBEBEB"/>
<path d="M166.848 187.692H30.9197C29.8536 187.692 28.8311 187.293 28.0772 186.582C27.3234 185.872 26.8998 184.908 26.8998 183.903V3.7565C26.9091 2.75717 27.3367 1.80176 28.0896 1.09822C28.8425 0.394673 29.8596 -3.83123e-05 30.9197 2.7892e-09H166.848C167.914 2.78921e-09 168.937 0.399269 169.69 1.10997C170.444 1.82068 170.868 2.7846 170.868 3.78968V183.903C170.868 184.908 170.444 185.872 169.69 186.582C168.937 187.293 167.914 187.692 166.848 187.692V187.692ZM30.9197 0.132739C29.9008 0.134493 28.9242 0.516844 28.2037 1.19605C27.4833 1.87526 27.0777 2.79596 27.0758 3.7565V183.903C27.0777 184.863 27.4833 185.784 28.2037 186.463C28.9242 187.142 29.9008 187.525 30.9197 187.526H166.848C167.867 187.525 168.844 187.142 169.564 186.463C170.284 185.784 170.69 184.863 170.692 183.903V3.7565C170.69 2.79596 170.284 1.87526 169.564 1.19605C168.844 0.516844 167.867 0.134493 166.848 0.132739H30.9197Z" fill="#EBEBEB"/>
<path d="M319.13 187.692H183.188C182.122 187.69 181.101 187.291 180.347 186.58C179.594 185.87 179.17 184.907 179.168 183.903V3.7565C179.179 2.75772 179.607 1.8033 180.36 1.10013C181.112 0.39696 182.128 0.00169128 183.188 0H319.13C320.188 0.00345418 321.201 0.399708 321.951 1.10288C322.701 1.80604 323.127 2.75947 323.136 3.7565V183.903C323.136 184.905 322.714 185.867 321.964 186.578C321.213 187.288 320.194 187.689 319.13 187.692V187.692ZM183.188 0.132739C182.169 0.134493 181.192 0.516844 180.472 1.19605C179.751 1.87526 179.346 2.79596 179.344 3.7565V183.903C179.346 184.863 179.751 185.784 180.472 186.463C181.192 187.142 182.169 187.525 183.188 187.526H319.13C320.149 187.525 321.126 187.142 321.846 186.463C322.567 185.784 322.972 184.863 322.974 183.903V3.7565C322.972 2.79596 322.567 1.87526 321.846 1.19605C321.126 0.516844 320.149 0.134493 319.13 0.132739H183.188Z" fill="#EBEBEB"/>
<path d="M352 217.293H0V217.459H352V217.293Z" fill="#EBEBEB"/>
<path d="M265.992 106.297H307.028C308.335 106.294 309.621 105.985 310.77 105.397C311.918 104.81 312.894 103.962 313.608 102.93C314.322 101.898 314.753 100.715 314.862 99.4877C314.971 98.2599 314.754 97.0259 314.23 95.8969C311.506 89.9967 305.712 86.7977 300.474 91.2511C292.596 97.888 292.97 84.9924 283.543 86.8043C275.299 88.3905 276.433 96.0429 271.385 97.6159C266.337 99.1888 259.368 104.538 265.992 106.297Z" fill="#FAFAFA"/>
<path d="M200.978 36.7686H230.912C231.864 36.7681 232.802 36.5447 233.64 36.1184C234.478 35.6922 235.191 35.0764 235.714 34.3264C236.237 33.5764 236.555 32.7156 236.638 31.8213C236.722 30.9269 236.568 30.0271 236.192 29.2025C234.2 24.8951 229.969 22.5655 226.153 25.7911C220.401 30.6626 220.669 21.2249 213.791 22.5523C207.772 23.7071 208.602 29.2954 204.913 30.4369C201.224 31.5785 196.148 35.481 200.978 36.7686Z" fill="#FAFAFA"/>
<path d="M260.255 217.372H255.327V68.805C255.33 64.8062 257.017 60.9722 260.015 58.144C263.014 55.3158 267.08 53.7245 271.322 53.7193H275.679V58.3651H271.322C268.386 58.3686 265.573 59.4699 263.498 61.4272C261.423 63.3844 260.257 66.0378 260.255 68.805V217.372Z" fill="#F0F0F0"/>
<path d="M294.364 29.8661H275.679V79.6298H294.364V29.8661Z" fill="#EBEBEB"/>
<path d="M275.679 79.6431H294.364V79.736C294.364 80.646 293.98 81.5188 293.297 82.1623C292.615 82.8058 291.689 83.1673 290.724 83.1673H279.319C278.354 83.1673 277.428 82.8058 276.745 82.1623C276.063 81.5188 275.679 80.646 275.679 79.736V79.6431Z" fill="#E6E6E6"/>
<path d="M285.021 45.6156C288.221 45.6156 290.815 43.1701 290.815 40.1534C290.815 37.1367 288.221 34.6912 285.021 34.6912C281.822 34.6912 279.228 37.1367 279.228 40.1534C279.228 43.1701 281.822 45.6156 285.021 45.6156Z" fill="#F0F0F0"/>
<path d="M285.021 44.2882C288.221 44.2882 290.815 41.8427 290.815 38.826C290.815 35.8093 288.221 33.3638 285.021 33.3638C281.822 33.3638 279.228 35.8093 279.228 38.826C279.228 41.8427 281.822 44.2882 285.021 44.2882Z" fill="#FAFAFA"/>
<path d="M285.021 60.5487C288.221 60.5487 290.815 58.1032 290.815 55.0865C290.815 52.0698 288.221 49.6243 285.021 49.6243C281.822 49.6243 279.228 52.0698 279.228 55.0865C279.228 58.1032 281.822 60.5487 285.021 60.5487Z" fill="#F0F0F0"/>
<path d="M285.021 59.2213C288.221 59.2213 290.815 56.7758 290.815 53.7591C290.815 50.7424 288.221 48.2969 285.021 48.2969C281.822 48.2969 279.228 50.7424 279.228 53.7591C279.228 56.7758 281.822 59.2213 285.021 59.2213Z" fill="#FAFAFA"/>
<path d="M285.021 75.4817C288.221 75.4817 290.815 73.0362 290.815 70.0195C290.815 67.0029 288.221 64.5574 285.021 64.5574C281.822 64.5574 279.228 67.0029 279.228 70.0195C279.228 73.0362 281.822 75.4817 285.021 75.4817Z" fill="#F0F0F0"/>
<path d="M285.021 74.1543C288.221 74.1543 290.815 71.7088 290.815 68.6922C290.815 65.6755 288.221 63.23 285.021 63.23C281.822 63.23 279.228 65.6755 279.228 68.6922C279.228 71.7088 281.822 74.1543 285.021 74.1543Z" fill="#FAFAFA"/>
<path d="M307.585 173.921H275.067V187.301H307.585V173.921Z" fill="#EBEBEB"/>
<path d="M277.327 172.069H272.8V189.152H277.327V172.069Z" fill="#F5F5F5"/>
<path d="M309.844 172.069H305.318V189.152H309.844V172.069Z" fill="#F5F5F5"/>
<path d="M271.997 178.48H275.067V182.748H271.997C271.609 182.748 271.237 182.602 270.962 182.343C270.687 182.084 270.533 181.733 270.533 181.367V179.861C270.533 179.494 270.687 179.143 270.962 178.884C271.237 178.626 271.609 178.48 271.997 178.48V178.48Z" fill="#F5F5F5"/>
<path d="M310.64 182.748H307.571V178.48H310.64C311.028 178.48 311.401 178.626 311.675 178.884C311.95 179.143 312.104 179.494 312.104 179.861V181.367C312.104 181.733 311.95 182.084 311.675 182.343C311.401 182.602 311.028 182.748 310.64 182.748V182.748Z" fill="#F5F5F5"/>
<path d="M300.059 211.718H282.586V165.458C282.586 164.377 282.812 163.306 283.251 162.307C283.69 161.307 284.333 160.399 285.144 159.634C285.956 158.87 286.919 158.263 287.979 157.849C289.039 157.435 290.175 157.222 291.322 157.222V157.222C292.47 157.221 293.606 157.434 294.667 157.847C295.727 158.261 296.691 158.868 297.502 159.633C298.314 160.398 298.957 161.306 299.396 162.306C299.834 163.305 300.06 164.377 300.059 165.458V211.718Z" fill="#F5F5F5"/>
<path d="M283.761 208.937H298.89C299.461 208.938 300.025 209.045 300.551 209.252C301.078 209.459 301.556 209.762 301.957 210.144C302.359 210.526 302.677 210.979 302.892 211.477C303.107 211.974 303.217 212.508 303.213 213.045V217.406H279.432V213.045C279.428 212.507 279.537 211.973 279.753 211.475C279.969 210.977 280.287 210.524 280.69 210.142C281.092 209.76 281.571 209.457 282.098 209.25C282.625 209.043 283.19 208.937 283.761 208.937V208.937Z" fill="#EBEBEB"/>
<path d="M291.322 187.632C295.451 187.632 298.799 184.477 298.799 180.584C298.799 176.691 295.451 173.536 291.322 173.536C287.193 173.536 283.846 176.691 283.846 180.584C283.846 184.477 287.193 187.632 291.322 187.632Z" fill="#FAFAFA"/>
<path d="M293.103 180.584C293.105 180.916 293.001 181.242 292.807 181.519C292.612 181.796 292.334 182.012 292.009 182.14C291.683 182.268 291.325 182.302 290.979 182.238C290.633 182.174 290.315 182.015 290.065 181.78C289.816 181.546 289.645 181.247 289.576 180.921C289.507 180.595 289.541 180.257 289.676 179.95C289.811 179.642 290.039 179.38 290.332 179.195C290.625 179.01 290.97 178.912 291.322 178.912C291.793 178.912 292.245 179.088 292.579 179.401C292.913 179.714 293.101 180.14 293.103 180.584V180.584Z" fill="#EBEBEB"/>
<path d="M279.432 167.801C279.432 167.235 279.671 166.691 280.096 166.29C280.521 165.889 281.097 165.664 281.699 165.664H300.953C301.553 165.666 302.128 165.892 302.551 166.293C302.975 166.693 303.213 167.236 303.213 167.801V167.801C303.213 168.367 302.975 168.91 302.551 169.31C302.128 169.711 301.553 169.937 300.953 169.938H281.699C281.097 169.938 280.521 169.713 280.096 169.312C279.671 168.912 279.432 168.368 279.432 167.801V167.801Z" fill="#F0F0F0"/>
<path d="M287.521 191.469C288.121 191.469 288.696 191.693 289.121 192.092C289.546 192.492 289.786 193.033 289.788 193.599V204.636C289.788 204.917 289.729 205.195 289.615 205.454C289.501 205.713 289.334 205.949 289.124 206.147C288.913 206.346 288.663 206.503 288.388 206.611C288.113 206.718 287.818 206.773 287.521 206.773V206.773C286.921 206.772 286.346 206.546 285.922 206.145C285.499 205.744 285.261 205.202 285.261 204.636V193.599C285.261 193.034 285.499 192.492 285.923 192.093C286.346 191.693 286.921 191.469 287.521 191.469V191.469Z" fill="#EBEBEB"/>
<path d="M295.124 191.469C295.724 191.469 296.299 191.693 296.724 192.092C297.149 192.492 297.389 193.033 297.391 193.599V204.636C297.391 204.917 297.332 205.195 297.218 205.454C297.104 205.713 296.937 205.949 296.727 206.147C296.516 206.346 296.266 206.503 295.991 206.611C295.716 206.718 295.422 206.773 295.124 206.773V206.773C294.524 206.772 293.949 206.546 293.525 206.145C293.102 205.744 292.864 205.202 292.864 204.636V193.599C292.864 193.034 293.102 192.492 293.526 192.093C293.95 191.693 294.525 191.469 295.124 191.469V191.469Z" fill="#EBEBEB"/>
<path d="M50.7232 217.472H48.9914C48.8709 217.472 48.7517 217.449 48.6409 217.405C48.53 217.36 48.4299 217.295 48.3464 217.214C48.2629 217.132 48.1978 217.035 48.155 216.929C48.1122 216.823 48.0925 216.709 48.0973 216.596L49.984 176.489H54.4192L51.6032 216.689C51.5873 216.9 51.4881 217.097 51.3251 217.242C51.1621 217.387 50.9473 217.469 50.7232 217.472Z" fill="#F0F0F0"/>
<path d="M57.9955 217.472H56.2637C56.1436 217.472 56.0247 217.449 55.9142 217.405C55.8037 217.36 55.704 217.295 55.621 217.213C55.5381 217.131 55.4737 217.034 55.4316 216.928C55.3896 216.822 55.3709 216.709 55.3766 216.596L57.2422 176.489H61.6915L58.8755 216.689C58.8613 216.9 58.7625 217.099 58.5992 217.244C58.4359 217.389 58.2201 217.471 57.9955 217.472V217.472Z" fill="#F0F0F0"/>
<path d="M78.2003 217.472H79.9322C80.0526 217.472 80.1718 217.449 80.2826 217.405C80.3935 217.36 80.4936 217.295 80.5771 217.214C80.6606 217.132 80.7258 217.035 80.7686 216.929C80.8114 216.823 80.831 216.709 80.8262 216.596L78.9536 176.489H74.5043L77.3203 216.689C77.3346 216.9 77.4333 217.099 77.5967 217.244C77.76 217.389 77.9757 217.471 78.2003 217.472V217.472Z" fill="#F0F0F0"/>
<path d="M85.367 217.472H87.0989C87.2193 217.472 87.3385 217.449 87.4494 217.405C87.5602 217.36 87.6604 217.295 87.7439 217.214C87.8274 217.132 87.8925 217.035 87.9353 216.929C87.9781 216.823 87.9977 216.709 87.993 216.596L86.1274 176.489H81.664L84.48 216.689C84.4943 216.901 84.5941 217.101 84.7589 217.246C84.9237 217.392 85.1412 217.473 85.367 217.472V217.472Z" fill="#F0F0F0"/>
<path d="M61.8816 152.895H58.1082V171.691H61.8816V152.895Z" fill="#F0F0F0"/>
<path d="M78.5664 152.895H74.793V171.691H78.5664V152.895Z" fill="#F0F0F0"/>
<path d="M91.344 175.699C91.344 179.854 81.1501 179.462 68.5766 179.462C56.0032 179.462 45.8022 179.854 45.8022 175.699C45.8022 171.545 55.9962 168.173 68.5766 168.173C81.1571 168.173 91.344 171.538 91.344 175.699Z" fill="#F5F5F5"/>
<path d="M79.4042 154.939H57.728C56.077 154.939 54.4867 154.352 53.2745 153.295C52.0623 152.238 51.3172 150.79 51.1878 149.238L50.4838 141.088C50.4181 140.24 50.5383 139.388 50.8371 138.586C51.136 137.784 51.6069 137.049 52.2206 136.426C52.8343 135.804 53.5776 135.307 54.404 134.967C55.2304 134.627 56.1223 134.451 57.024 134.451H80.0378C80.9397 134.45 81.8321 134.625 82.6591 134.965C83.486 135.304 84.2297 135.801 84.8436 136.424C85.4575 137.047 85.9284 137.783 86.2268 138.585C86.5252 139.388 86.6448 140.24 86.5779 141.088L85.8739 149.238C85.7472 150.779 85.0126 152.219 83.8149 153.274C82.6172 154.33 81.0435 154.924 79.4042 154.939Z" fill="#F5F5F5"/>
<path d="M73.8214 77.7316H48.2451V96.7398H73.8214V77.7316Z" fill="#F0F0F0"/>
<path d="M48.2451 77.7316H46.8653V96.7398H48.2451V77.7316Z" fill="#E0E0E0"/>
<path d="M71.2096 79.6696H50.8499V94.8018H71.2096V79.6696Z" fill="#FAFAFA"/>
<path d="M69.5411 80.9174H52.5325V93.5607H69.5411V80.9174Z" fill="#EBEBEB"/>
<path d="M107.247 46.8832H79.0944V80.5391H107.247V46.8832Z" fill="#EBEBEB"/>
<path d="M79.0944 46.8832H77.7498V80.5391H79.0944V46.8832Z" fill="#E0E0E0"/>
<path d="M104.375 50.3145H81.9667V77.1078H104.375V50.3145Z" fill="#F5F5F5"/>
<path d="M102.531 52.5246H83.8112V74.911H102.531V52.5246Z" fill="#FAFAFA"/>
<path d="M89.4643 60.396C89.4643 60.396 92.7731 64.8096 94.4768 64.7365C96.0326 64.6768 98.7008 60.396 98.7008 60.396C98.7008 60.396 95.392 55.9825 93.6883 56.0555C92.1114 56.1417 89.4643 60.396 89.4643 60.396Z" fill="#EBEBEB"/>
<path d="M98.1235 70.1921C99.1021 68.4134 93.991 64.6768 91.865 64.7631C89.9149 64.8427 85.8528 68.4997 86.6131 70.1921C87.7254 72.6942 96.8 72.6013 98.1235 70.1921Z" fill="#F0F0F0"/>
<path d="M56.0736 67.7033C63.0916 67.7033 68.7808 60.2241 68.7808 50.9981C68.7808 41.7721 63.0916 34.293 56.0736 34.293C49.0556 34.293 43.3664 41.7721 43.3664 50.9981C43.3664 60.2241 49.0556 67.7033 56.0736 67.7033Z" fill="#E0E0E0"/>
<path d="M57.5872 67.7033C64.6052 67.7033 70.2944 60.2241 70.2944 50.9981C70.2944 41.7721 64.6052 34.293 57.5872 34.293C50.5692 34.293 44.88 41.7721 44.88 50.9981C44.88 60.2241 50.5692 67.7033 57.5872 67.7033Z" fill="#EBEBEB"/>
<path d="M57.5872 65.2277C63.5671 65.2277 68.4147 58.8569 68.4147 50.9981C68.4147 43.1393 63.5671 36.7686 57.5872 36.7686C51.6073 36.7686 46.7597 43.1393 46.7597 50.9981C46.7597 58.8569 51.6073 65.2277 57.5872 65.2277Z" fill="#E6E6E6"/>
<path d="M57.5872 63.7145C62.9294 63.7145 67.2602 58.0212 67.2602 50.9981C67.2602 43.9751 62.9294 38.2818 57.5872 38.2818C52.245 38.2818 47.9142 43.9751 47.9142 50.9981C47.9142 58.0212 52.245 63.7145 57.5872 63.7145Z" fill="#FAFAFA"/>
<path d="M60.6214 57.9072C61.6292 56.9995 62.4176 55.8976 62.9327 54.6767C63.4478 53.4558 63.6776 52.1445 63.6064 50.8322C63.6064 50.8322 59.6147 50.3875 59.7344 56.6926C59.7344 56.6926 55.2358 52.2923 56.5664 49.5048C58.6784 45.1444 58.6784 45.1444 57.1718 42.4232C57.1718 42.4232 53.2506 43.9165 55.0598 48.9473C55.0957 50.2589 55.3062 51.5611 55.6864 52.8233C55.6864 52.8233 51.737 49.2526 50.4627 51.5888C50.4627 51.5888 52.5747 55.3652 55.6864 53.7989C55.6653 53.7989 59.136 59.5797 60.6214 57.9072Z" fill="#EBEBEB"/>
<path d="M172.607 244.71C247.993 244.71 309.105 241.346 309.105 237.197C309.105 233.048 247.993 229.684 172.607 229.684C97.2206 229.684 36.1082 233.048 36.1082 237.197C36.1082 241.346 97.2206 244.71 172.607 244.71Z" fill="#F5F5F5"/>
<path d="M226.533 93.3218C224.639 91.4634 223.295 88.0122 222.64 85.7889L219.648 92.5187C220.129 93.0423 220.478 93.662 220.668 94.3311C220.858 95.0001 220.885 95.7012 220.746 96.3814C220.746 96.4411 220.641 97.5694 218.634 98.7242C218.634 98.7242 218.993 105.534 223.295 104.571C227.596 103.609 229.933 95.5252 229.933 95.5252L230.243 93.2355C230.243 93.2355 228.286 94.7885 226.533 93.3218Z" fill="#FFC3BD"/>
<path opacity="0.1" d="M220.401 90.8727L219.697 92.5187C220.26 93.155 220.643 93.9154 220.81 94.7288C222.781 92.5386 222.999 88.9945 222.999 88.9945L220.401 90.8727Z" fill="black"/>
<path d="M189.172 123.626C189.172 123.626 200.781 124.071 205.934 122.743C211.087 121.416 215.466 112.914 215.466 112.914L209.588 109.854L203.745 118.051L189.186 120.248L185.004 117.474C185.004 117.474 176.556 115.774 176.556 116.81C176.556 117.845 180.914 118.681 180.914 118.681C180.914 118.681 181.174 123.58 182.963 123.732C184.751 123.885 189.172 123.626 189.172 123.626Z" fill="#FFC3BD"/>
<path d="M217.585 100.218C217.585 100.218 212.559 100.881 209.271 106.622C205.983 112.363 208.792 112.595 211.573 114.215C214.354 115.834 215.748 116.206 217.029 112.662C218.31 109.118 220.838 99.8525 217.585 100.218Z" fill="#407BFF"/>
<path opacity="0.1" d="M217.571 111.042L215.706 107.458L212.573 107.233C212.421 109.768 212.475 112.311 212.735 114.839C214.769 115.841 215.945 115.642 217.029 112.648C217.191 112.197 217.381 111.653 217.571 111.042Z" fill="black"/>
<path d="M207.56 77.3467C207.56 77.3467 203.9 78.5679 206.321 82.0788C208.743 85.5898 203.857 87.9791 212.059 88.9481C220.26 89.917 212.348 75.933 212.348 75.933L207.56 77.3467Z" fill="#263238"/>
<path opacity="0.3" d="M207.56 77.3467C207.56 77.3467 203.9 78.5679 206.321 82.0788C208.743 85.5898 203.857 87.9791 212.059 88.9481C220.26 89.917 212.348 75.933 212.348 75.933L207.56 77.3467Z" fill="black"/>
<path d="M239.092 99.3813C237.868 91.8683 233.228 92.001 228.708 93.6802C229.025 96.5075 229.032 100.118 224.689 102.368C220.781 104.359 219.261 101.041 219.176 98.2397C215.079 100.437 211.658 103.251 212.777 108.859C213.418 112.045 216.403 115.542 219.458 119.982C223.112 125.292 226.871 131.318 226.871 131.318L247.752 121.296C247.752 121.296 240.423 107.518 239.092 99.3813Z" fill="#407BFF"/>
<path opacity="0.2" d="M239.092 99.3813C238.944 98.4128 238.692 97.461 238.339 96.5407L235.178 96.0363L233.531 98.5052C233.531 98.5052 237.016 104.293 241.648 107.95C240.517 105.174 239.661 102.306 239.092 99.3813Z" fill="black"/>
<path d="M244.675 96.992C244.675 96.992 251.842 101.638 254.031 103.397C257.291 106.051 266.07 114.991 266.07 114.991L271.455 117.766V120.978L268.907 122.637C268.721 122.758 268.511 122.843 268.29 122.887C268.068 122.931 267.84 122.933 267.618 122.893C267.396 122.853 267.184 122.771 266.996 122.653C266.807 122.535 266.646 122.383 266.52 122.206L263.254 117.606C263.254 117.606 255.2 110.671 252.236 108.693C249.73 107.02 241.606 102.912 241.606 102.912L244.675 96.992Z" fill="#FFC3BD"/>
<path d="M231.447 92.9833C231.447 92.9833 236.065 91.0254 240.001 92.9833C243.936 94.9412 245.675 96.0164 245.288 98.3791C244.9 100.742 243.457 105.627 240.867 104.817C238.276 104.007 230.011 96.2752 231.447 92.9833Z" fill="#407BFF"/>
<path d="M223.731 80.1873C224.266 85.2778 224.611 87.4149 222.358 90.4082C218.965 94.9146 212.221 94.4235 210.088 89.5918C208.159 85.238 207.61 77.6454 212.495 74.8579C213.568 74.2277 214.794 73.8675 216.056 73.8117C217.318 73.7559 218.574 74.0064 219.704 74.5391C220.835 75.0718 221.801 75.869 222.511 76.8545C223.221 77.8399 223.651 78.9806 223.759 80.1674L223.731 80.1873Z" fill="#FFC3BD"/>
<path d="M212.39 84.0765C212.164 85.0707 211.794 86.0309 211.292 86.9304C211.537 87.0474 211.807 87.1122 212.082 87.1203C212.356 87.1283 212.63 87.0793 212.883 86.9769L212.39 84.0765Z" fill="#ED893E"/>
<path d="M215.994 80.6784C216.027 80.6612 216.053 80.636 216.072 80.6054C216.098 80.5593 216.105 80.5055 216.09 80.4549C216.076 80.4044 216.041 80.3609 215.994 80.3333C215.65 80.1369 215.26 80.0216 214.858 79.9974C214.456 79.9731 214.054 80.0405 213.685 80.1939C213.635 80.2206 213.598 80.2643 213.581 80.3162C213.564 80.368 213.568 80.424 213.594 80.4727C213.619 80.519 213.663 80.554 213.716 80.5701C213.768 80.5863 213.826 80.5823 213.875 80.559C214.183 80.4369 214.517 80.3853 214.85 80.4083C215.182 80.4314 215.505 80.5285 215.79 80.6917C215.822 80.7066 215.858 80.7133 215.894 80.7109C215.93 80.7086 215.964 80.6974 215.994 80.6784V80.6784Z" fill="#263238"/>
<path d="M207.933 81.966L208.025 81.8996C208.234 81.6581 208.5 81.4662 208.802 81.3394C209.104 81.2126 209.434 81.1545 209.764 81.1696C209.821 81.1772 209.879 81.1633 209.925 81.131C209.971 81.0987 210.002 81.0506 210.01 80.997V80.997C210.013 80.9431 209.994 80.8903 209.957 80.8486C209.921 80.807 209.87 80.7795 209.813 80.7713C209.413 80.7505 209.013 80.8189 208.646 80.9711C208.279 81.1234 207.955 81.3551 207.701 81.6474C207.662 81.6858 207.64 81.7369 207.64 81.7901C207.64 81.8433 207.662 81.8945 207.701 81.9328C207.733 81.9584 207.771 81.9756 207.812 81.9826C207.852 81.9896 207.894 81.9862 207.933 81.9726V81.966Z" fill="#263238"/>
<path d="M215.347 82.9615C215.417 83.3664 215.241 83.7314 214.952 83.7779C214.664 83.8243 214.382 83.5323 214.319 83.1142C214.255 82.6961 214.417 82.3443 214.699 82.2978C214.98 82.2514 215.269 82.5235 215.347 82.9615Z" fill="#263238"/>
<path d="M210.426 83.685C210.496 84.0898 210.32 84.4548 210.038 84.5013C209.757 84.5478 209.475 84.2491 209.398 83.8376C209.32 83.4261 209.503 83.0611 209.785 83.0213C210.067 82.9814 210.362 83.2668 210.426 83.685Z" fill="#263238"/>
<path d="M209.912 83.0213L208.82 82.9018C208.82 82.9018 209.489 83.5854 209.912 83.0213Z" fill="#263238"/>
<path d="M214.833 82.2979L213.741 82.1784C213.741 82.1784 214.41 82.8354 214.833 82.2979Z" fill="#263238"/>
<path d="M216.396 88.8618C216.663 88.7389 216.918 88.5922 217.156 88.4237C217.173 88.4125 217.187 88.3983 217.198 88.3818C217.209 88.3653 217.216 88.347 217.219 88.3278C217.223 88.3087 217.222 88.2891 217.217 88.2702C217.212 88.2514 217.203 88.2336 217.191 88.218V88.218C217.161 88.1923 217.122 88.1781 217.082 88.1781C217.042 88.1781 217.003 88.1923 216.973 88.218C216.447 88.5975 215.835 88.8554 215.184 88.9706C214.534 89.0859 213.863 89.0555 213.228 88.8817C213.209 88.8741 213.188 88.8701 213.168 88.87C213.147 88.87 213.127 88.8737 213.108 88.8811C213.089 88.8886 213.071 88.8995 213.057 88.9132C213.043 88.927 213.031 88.9433 213.023 88.9613C213.014 88.9794 213.01 88.9992 213.009 89.0192C213.009 89.0392 213.014 89.059 213.022 89.0773C213.031 89.0956 213.044 89.1118 213.06 89.125C213.076 89.1382 213.095 89.148 213.115 89.1538C214.207 89.4622 215.384 89.3574 216.396 88.8618V88.8618Z" fill="#263238"/>
<path d="M212.087 77.3998C209.975 77.6387 204.343 79.1519 205.237 74.2008C206.131 69.2497 216.191 66.7741 220.866 69.9731C225.54 73.1721 229.131 72.9331 232.834 70.3381C236.537 67.7431 238.339 68.7652 243.084 71.181C243.084 71.181 240.522 75.349 241.74 77.8843C241.74 77.8843 238.924 75.2295 233.665 78.0635C233.665 78.0635 239.747 76.5436 242.056 80.5059C242.056 80.5059 241.416 84.8796 243.654 87.4813C245.893 90.083 243.591 93.1625 235.009 90.0232C226.428 86.884 225.512 89.7644 223.534 88.3773C221.556 86.9902 220.07 83.2337 219.761 80.5059C219.564 78.5414 218.627 76.6697 212.087 77.3998Z" fill="#263238"/>
<path d="M224.47 83.685C224.403 84.1711 224.235 84.64 223.975 85.0648C223.715 85.4896 223.369 85.8619 222.957 86.1605C221.852 86.9437 220.788 86.1605 220.676 84.8929C220.57 83.7845 221.021 82.0324 222.337 81.7271C222.627 81.6708 222.928 81.6833 223.211 81.7634C223.495 81.8435 223.753 81.9888 223.962 82.1862C224.172 82.3836 224.326 82.6269 224.411 82.8943C224.496 83.1617 224.509 83.4448 224.449 83.7182L224.47 83.685Z" fill="#FFC3BD"/>
<path d="M252.736 224.328C252.919 228.569 253.053 231.934 253.053 231.934L248.054 232.472C248.054 232.472 247.576 229.604 246.858 225.204L252.736 224.328Z" fill="#FFC3BD"/>
<path d="M245.858 231.449C245.343 231.538 244.811 231.444 244.365 231.184C244.312 231.113 244.283 231.029 244.283 230.942C244.283 230.855 244.312 230.77 244.365 230.699C244.4 230.632 244.449 230.571 244.51 230.522C244.57 230.473 244.641 230.436 244.717 230.414C245.541 230.149 247.343 230.978 247.421 231.018C247.443 231.028 247.461 231.044 247.474 231.065C247.486 231.085 247.492 231.108 247.491 231.131C247.489 231.154 247.478 231.175 247.462 231.192C247.445 231.208 247.424 231.22 247.4 231.224C246.894 231.343 246.378 231.419 245.858 231.449V231.449ZM245.006 230.587C244.929 230.586 244.853 230.6 244.781 230.626C244.732 230.636 244.686 230.655 244.647 230.684C244.608 230.713 244.577 230.75 244.556 230.792C244.478 230.938 244.513 231.005 244.556 231.038C244.809 231.33 246.069 231.264 246.991 231.098C246.365 230.811 245.687 230.637 244.992 230.587H245.006Z" fill="#407BFF"/>
<path d="M247.357 231.224H247.308C246.696 231.011 245.428 230.062 245.499 229.525C245.499 229.399 245.59 229.239 245.914 229.186C246.036 229.162 246.162 229.164 246.284 229.19C246.405 229.216 246.519 229.267 246.618 229.339C247.109 229.825 247.422 230.446 247.512 231.111C247.517 231.127 247.517 231.144 247.512 231.161C247.508 231.177 247.498 231.192 247.485 231.203C247.472 231.215 247.456 231.223 247.438 231.227C247.421 231.23 247.403 231.229 247.386 231.224H247.357ZM246.006 229.392H245.942C245.731 229.392 245.717 229.505 245.717 229.531C245.717 229.85 246.548 230.607 247.188 230.912C247.094 230.382 246.828 229.893 246.428 229.511C246.307 229.426 246.157 229.383 246.006 229.392V229.392Z" fill="#407BFF"/>
<path d="M247.843 230.534L253.292 230.208C253.392 230.202 253.492 230.228 253.574 230.282C253.656 230.337 253.715 230.416 253.743 230.507L255.017 234.628C255.048 234.715 255.06 234.807 255.052 234.898C255.043 234.989 255.015 235.078 254.969 235.158C254.923 235.238 254.859 235.309 254.783 235.365C254.706 235.421 254.618 235.462 254.524 235.485C254.473 235.491 254.421 235.491 254.369 235.485C252.405 235.571 250.645 235.578 248.202 235.724C245.316 235.903 246.09 236.182 242.676 236.434C240.634 236.58 240.113 234.443 240.972 234.25C244.908 233.54 245.245 232.385 246.682 230.932C247.008 230.676 247.419 230.535 247.843 230.534V230.534Z" fill="#263238"/>
<path d="M249.709 124.23L248.758 121.011C248.729 120.92 248.679 120.837 248.612 120.766C248.545 120.695 248.463 120.638 248.37 120.6C248.278 120.562 248.179 120.542 248.078 120.543C247.977 120.544 247.878 120.566 247.787 120.606L226.484 130.747C226.398 130.791 226.323 130.851 226.263 130.924C226.203 130.996 226.159 131.08 226.136 131.169C226.112 131.259 226.108 131.352 226.124 131.442C226.141 131.533 226.177 131.62 226.23 131.696L228.385 134.65C228.385 134.65 233.672 168.578 235.84 179.861C238.079 191.362 246.09 225.781 246.09 225.781C246.116 225.904 246.191 226.012 246.301 226.083C246.41 226.154 246.544 226.181 246.675 226.16L252.877 225.217C252.994 225.199 253.102 225.142 253.18 225.058C253.258 224.973 253.303 224.865 253.306 224.753C253.377 221.819 253.306 203.276 251.349 190.154C250.645 185.469 248.97 181.712 248.399 179.131C247.773 176.283 248.744 174.372 249.103 167.516C249.878 154.64 250.737 134.265 249.709 124.23Z" fill="#263238"/>
<path opacity="0.5" d="M249.153 167.542C249.399 163.222 249.652 158.072 249.857 152.749L243.676 142.926L240.923 137.125L238.318 140.444C238.318 140.444 242.922 158.702 248.97 170.171C249.033 169.401 249.103 168.525 249.153 167.542Z" fill="black"/>
<path d="M296.032 208.094C298.623 211.565 300.305 213.848 300.305 213.848L296.384 216.848L291.203 211.353L296.032 208.094Z" fill="#FFC3BD"/>
<path d="M293.681 217.08C293.298 217.418 292.796 217.61 292.273 217.618C292.184 217.59 292.107 217.537 292.053 217.465C291.999 217.394 291.97 217.308 291.97 217.22C291.955 217.069 292.003 216.92 292.104 216.802C292.646 216.138 294.638 215.939 294.73 215.926C294.755 215.923 294.78 215.927 294.802 215.939C294.823 215.951 294.84 215.97 294.849 215.992C294.863 216.011 294.87 216.033 294.87 216.055C294.87 216.078 294.863 216.1 294.849 216.118C294.489 216.469 294.098 216.791 293.681 217.08V217.08ZM292.463 216.788C292.4 216.83 292.343 216.879 292.294 216.934C292.262 216.97 292.237 217.011 292.223 217.056C292.208 217.1 292.204 217.147 292.209 217.193C292.209 217.353 292.294 217.392 292.343 217.406C292.723 217.519 293.751 216.822 294.455 216.211C293.758 216.281 293.081 216.477 292.463 216.788V216.788Z" fill="#407BFF"/>
<path d="M294.814 216.125H294.772C294.131 216.258 292.519 216.125 292.273 215.62C292.202 215.508 292.181 215.328 292.428 215.123C292.514 215.047 292.616 214.989 292.728 214.951C292.839 214.913 292.957 214.897 293.075 214.904C293.77 215.064 294.393 215.426 294.856 215.939C294.867 215.956 294.872 215.976 294.872 215.995C294.872 216.015 294.867 216.035 294.856 216.052C294.851 216.08 294.836 216.105 294.814 216.125V216.125ZM292.625 215.275L292.568 215.308C292.406 215.441 292.442 215.514 292.456 215.541C292.632 215.813 293.772 216.019 294.49 215.946C294.101 215.552 293.596 215.277 293.04 215.156C292.891 215.148 292.744 215.191 292.625 215.275V215.275Z" fill="#407BFF"/>
<path d="M294.821 215.302L299.221 212.242C299.299 212.183 299.396 212.151 299.496 212.151C299.596 212.151 299.693 212.183 299.77 212.242L303.199 215.063C303.275 215.119 303.338 215.19 303.383 215.27C303.429 215.351 303.457 215.439 303.465 215.53C303.473 215.621 303.461 215.712 303.43 215.799C303.398 215.885 303.348 215.964 303.283 216.032C303.249 216.068 303.212 216.102 303.171 216.131C301.565 217.207 300.087 218.122 298.116 219.483C295.793 221.102 296.588 220.956 293.892 222.894C292.259 224.063 290.576 222.503 291.203 221.932C294.11 219.324 293.73 218.182 294.117 216.244C294.226 215.861 294.475 215.527 294.821 215.302V215.302Z" fill="#263238"/>
<path d="M234.108 132.42C234.108 132.42 250.42 167.868 258.129 178.434C264.979 187.818 290.984 211.831 290.984 211.831C291.176 212.026 291.441 212.144 291.723 212.16C292.005 212.176 292.282 212.089 292.498 211.917L296.109 209.023C296.307 208.863 296.438 208.641 296.48 208.398C296.521 208.155 296.469 207.907 296.335 207.696C294.117 204.291 284.782 190.135 276.588 180.923C273.321 177.252 270.181 174.558 268.632 172.533C266.598 169.879 267.076 167.715 265.464 160.288C262.465 146.477 256.622 126.168 247.752 122.922L234.108 132.42Z" fill="#263238"/>
<path opacity="0.3" d="M202.618 232.578H136.168C135.102 232.596 134.044 232.4 133.065 232.003C132.086 231.605 131.208 231.016 130.489 230.274C129.77 229.532 129.227 228.654 128.897 227.698C128.566 226.743 128.455 225.732 128.572 224.733L143.172 67.4378C143.401 65.3115 144.449 63.338 146.117 61.8911C147.786 60.4441 149.959 59.6241 152.226 59.5863H218.676C219.743 59.568 220.801 59.7641 221.781 60.1618C222.761 60.5594 223.639 61.1494 224.358 61.8924C225.077 62.6354 225.62 63.5143 225.95 64.4705C226.28 65.4267 226.39 66.4383 226.273 67.4378L211.672 224.733C211.441 226.858 210.393 228.83 208.725 230.275C207.056 231.721 204.884 232.54 202.618 232.578V232.578Z" fill="#407BFF"/>
<path d="M218.676 59.5598H152.226C149.959 59.5976 147.786 60.4176 146.117 61.8645C144.449 63.3115 143.401 65.2849 143.172 67.4112L128.572 224.706C128.455 225.705 128.566 226.716 128.897 227.672C129.227 228.627 129.77 229.505 130.489 230.247C131.208 230.989 132.086 231.579 133.065 231.976C134.044 232.373 135.102 232.569 136.168 232.551H202.618C204.884 232.514 207.056 231.694 208.725 230.249C210.393 228.803 211.441 226.831 211.672 224.706L226.273 67.4112C226.39 66.4117 226.28 65.4002 225.95 64.4439C225.62 63.4877 225.077 62.6088 224.358 61.8658C223.639 61.1229 222.761 60.5329 221.781 60.1352C220.801 59.7376 219.743 59.5414 218.676 59.5598V59.5598ZM207.976 224.733C207.847 225.914 207.264 227.01 206.336 227.813C205.409 228.617 204.201 229.072 202.942 229.093H136.492C135.899 229.103 135.311 228.994 134.767 228.773C134.223 228.552 133.735 228.225 133.335 227.812C132.936 227.4 132.634 226.912 132.45 226.381C132.266 225.85 132.203 225.288 132.268 224.733L146.868 67.4378C146.996 66.2554 147.578 65.1581 148.506 64.3533C149.433 63.5485 150.642 63.0922 151.902 63.0707H218.353C218.946 63.0607 219.534 63.17 220.079 63.3913C220.624 63.6125 221.112 63.9407 221.512 64.3539C221.912 64.7671 222.213 65.2559 222.397 65.7877C222.58 66.3194 222.642 66.8819 222.577 67.4378L207.976 224.733Z" fill="#407BFF"/>
<path opacity="0.6" d="M218.676 59.5598H152.226C149.959 59.5976 147.786 60.4176 146.117 61.8645C144.449 63.3115 143.401 65.2849 143.172 67.4112L128.572 224.706C128.455 225.705 128.566 226.716 128.897 227.672C129.227 228.627 129.77 229.505 130.489 230.247C131.208 230.989 132.086 231.579 133.065 231.976C134.044 232.373 135.102 232.569 136.168 232.551H202.618C204.884 232.514 207.056 231.694 208.725 230.249C210.393 228.803 211.441 226.831 211.672 224.706L226.273 67.4112C226.39 66.4117 226.28 65.4002 225.95 64.4439C225.62 63.4877 225.077 62.6088 224.358 61.8658C223.639 61.1229 222.761 60.5329 221.781 60.1352C220.801 59.7376 219.743 59.5414 218.676 59.5598V59.5598ZM207.976 224.733C207.847 225.914 207.264 227.01 206.336 227.813C205.409 228.617 204.201 229.072 202.942 229.093H136.492C135.899 229.103 135.311 228.994 134.767 228.773C134.223 228.552 133.735 228.225 133.335 227.812C132.936 227.4 132.634 226.912 132.45 226.381C132.266 225.85 132.203 225.288 132.268 224.733L146.868 67.4378C146.996 66.2554 147.578 65.1581 148.506 64.3533C149.433 63.5485 150.642 63.0922 151.902 63.0707H218.353C218.946 63.0607 219.534 63.17 220.079 63.3913C220.624 63.6125 221.112 63.9407 221.512 64.3539C221.912 64.7671 222.213 65.2559 222.397 65.7877C222.58 66.3194 222.642 66.8819 222.577 67.4378L207.976 224.733Z" fill="white"/>
<path d="M179.372 222.861H161.068C160.789 222.866 160.522 222.968 160.317 223.147C160.112 223.325 159.983 223.568 159.956 223.83C159.942 223.953 159.956 224.077 159.997 224.195C160.038 224.312 160.105 224.42 160.193 224.511C160.282 224.602 160.39 224.674 160.51 224.723C160.631 224.771 160.761 224.795 160.892 224.793H179.196C179.475 224.789 179.744 224.689 179.95 224.512C180.156 224.335 180.286 224.092 180.316 223.83C180.33 223.707 180.315 223.581 180.274 223.463C180.233 223.345 180.165 223.236 180.076 223.145C179.987 223.053 179.878 222.98 179.757 222.931C179.635 222.883 179.504 222.859 179.372 222.861V222.861Z" fill="white"/>
<path opacity="0.1" d="M178.922 132.738H159.548C158.925 132.75 158.307 132.635 157.736 132.404C157.164 132.172 156.651 131.828 156.231 131.395C155.811 130.961 155.495 130.448 155.302 129.891C155.109 129.333 155.044 128.742 155.112 128.159L156.809 109.888C156.943 108.648 157.554 107.497 158.527 106.653C159.5 105.809 160.767 105.331 162.089 105.308H181.47C182.092 105.298 182.709 105.413 183.281 105.645C183.852 105.877 184.364 106.221 184.784 106.654C185.203 107.087 185.52 107.6 185.714 108.157C185.907 108.715 185.972 109.304 185.905 109.888L184.209 128.159C184.074 129.4 183.462 130.552 182.488 131.395C181.513 132.239 180.245 132.717 178.922 132.738V132.738Z" fill="black"/>
<path d="M176.81 130.747H157.436C156.813 130.758 156.195 130.644 155.624 130.413C155.052 130.181 154.539 129.837 154.119 129.403C153.699 128.97 153.383 128.457 153.19 127.899C152.997 127.342 152.932 126.751 153 126.168L154.697 107.896C154.831 106.657 155.442 105.506 156.415 104.662C157.388 103.818 158.655 103.34 159.977 103.317H179.358C179.98 103.307 180.597 103.422 181.169 103.654C181.74 103.886 182.252 104.23 182.672 104.663C183.091 105.096 183.408 105.609 183.602 106.166C183.795 106.724 183.86 107.313 183.793 107.896L182.097 126.168C181.962 127.409 181.35 128.56 180.376 129.404C179.401 130.248 178.133 130.726 176.81 130.747V130.747Z" fill="#407BFF"/>
<path d="M171.649 115.363C171.98 111.819 168.833 108.952 164.539 108.952C160.244 108.952 156.57 111.819 156.246 115.363C155.985 118.157 157.921 120.533 160.843 121.403C160.438 122.146 159.792 122.748 158.998 123.122C159.139 123.203 159.287 123.272 159.442 123.327C160.23 123.568 161.083 123.543 161.854 123.256C162.624 122.969 163.265 122.438 163.666 121.754C167.777 121.622 171.332 118.801 171.649 115.363Z" fill="white"/>
<path d="M180.569 118.429C180.844 115.509 178.218 113.12 174.705 113.12C174.087 113.121 173.472 113.195 172.874 113.339C173.021 113.993 173.066 114.664 173.008 115.33C172.856 116.595 172.395 117.81 171.663 118.88C170.93 119.949 169.945 120.844 168.784 121.496C169.318 122.145 169.998 122.676 170.774 123.051C171.55 123.426 172.404 123.636 173.276 123.666C173.382 123.933 173.544 124.177 173.752 124.384C173.959 124.592 174.208 124.759 174.484 124.875C174.76 124.992 175.058 125.056 175.361 125.064C175.663 125.071 175.964 125.023 176.246 124.92C176.372 124.876 176.494 124.825 176.612 124.768C176.082 124.482 175.679 124.025 175.479 123.48C178.204 122.883 180.344 120.852 180.569 118.429Z" fill="white"/>
<path opacity="0.1" d="M170.037 189.285H155.626C155.163 189.293 154.704 189.208 154.279 189.036C153.853 188.864 153.472 188.608 153.159 188.286C152.847 187.964 152.611 187.583 152.467 187.168C152.323 186.753 152.274 186.314 152.324 185.88L153.585 172.295C153.684 171.371 154.14 170.513 154.865 169.884C155.59 169.256 156.535 168.899 157.52 168.883H171.931C172.394 168.875 172.855 168.96 173.28 169.132C173.706 169.305 174.088 169.561 174.401 169.884C174.713 170.207 174.949 170.589 175.093 171.005C175.236 171.42 175.284 171.86 175.233 172.295L173.972 185.88C173.873 186.804 173.417 187.66 172.691 188.288C171.966 188.916 171.022 189.27 170.037 189.285V189.285Z" fill="black"/>
<path opacity="0.1" d="M191.185 162.844H173.184C172.605 162.854 172.031 162.747 171.5 162.531C170.968 162.315 170.492 161.995 170.102 161.592C169.712 161.189 169.418 160.712 169.239 160.193C169.061 159.674 169.001 159.125 169.066 158.583L170.636 141.599C170.761 140.443 171.332 139.371 172.241 138.585C173.149 137.8 174.331 137.356 175.564 137.338H193.586C194.164 137.329 194.738 137.436 195.269 137.652C195.8 137.869 196.276 138.189 196.665 138.592C197.055 138.995 197.349 139.471 197.528 139.99C197.707 140.508 197.767 141.057 197.704 141.599L196.134 158.583C196.008 159.742 195.434 160.817 194.521 161.603C193.609 162.388 192.421 162.83 191.185 162.844V162.844Z" fill="black"/>
<path d="M189.073 160.852H171.072C170.493 160.862 169.919 160.756 169.388 160.54C168.856 160.324 168.38 160.004 167.99 159.601C167.6 159.197 167.306 158.72 167.127 158.202C166.949 157.683 166.889 157.134 166.954 156.592L168.524 139.608C168.649 138.452 169.22 137.38 170.129 136.594C171.037 135.809 172.219 135.365 173.452 135.347H191.474C192.052 135.338 192.626 135.445 193.157 135.661C193.688 135.878 194.164 136.198 194.553 136.601C194.943 137.004 195.237 137.48 195.416 137.999C195.595 138.517 195.655 139.066 195.592 139.608L194.022 156.592C193.896 157.751 193.322 158.826 192.409 159.611C191.497 160.397 190.309 160.839 189.073 160.852V160.852Z" fill="#407BFF"/>
<path d="M167.925 187.294H153.514C153.051 187.302 152.592 187.217 152.167 187.045C151.741 186.873 151.36 186.617 151.047 186.295C150.735 185.973 150.499 185.592 150.355 185.177C150.211 184.762 150.162 184.323 150.212 183.889L151.473 170.303C151.572 169.379 152.028 168.522 152.753 167.893C153.478 167.265 154.423 166.908 155.408 166.892H169.819C170.282 166.884 170.743 166.969 171.168 167.141C171.594 167.314 171.976 167.57 172.289 167.893C172.601 168.216 172.837 168.598 172.981 169.014C173.124 169.429 173.172 169.869 173.121 170.303L171.86 183.889C171.761 184.813 171.305 185.669 170.579 186.297C169.854 186.924 168.91 187.279 167.925 187.294V187.294Z" fill="#407BFF"/>
<path d="M190.256 141.094H173.536C173.007 141.092 172.497 141.277 172.106 141.613C171.715 141.948 171.472 142.41 171.424 142.906L170.488 153.313C170.462 153.543 170.488 153.776 170.565 153.996C170.641 154.216 170.767 154.417 170.932 154.588C171.098 154.759 171.301 154.894 171.526 154.986C171.752 155.077 171.995 155.122 172.241 155.118H188.954C189.481 155.12 189.991 154.936 190.381 154.602C190.772 154.268 191.016 153.808 191.066 153.313L192.03 142.92C192.06 142.686 192.035 142.449 191.959 142.226C191.882 142.002 191.756 141.796 191.587 141.623C191.419 141.45 191.213 141.313 190.983 141.222C190.753 141.13 190.505 141.087 190.256 141.094V141.094ZM177.45 148.09L171.853 152.941L172.755 143.238L177.45 148.09ZM173.775 142.349H189.777L181.688 149.364C181.615 149.434 181.528 149.489 181.432 149.527C181.336 149.564 181.233 149.584 181.129 149.584C181.025 149.584 180.922 149.564 180.825 149.527C180.729 149.489 180.642 149.434 180.569 149.364L173.775 142.349ZM178.309 148.986L179.541 150.26C179.726 150.447 179.951 150.596 180.201 150.697C180.45 150.798 180.72 150.848 180.991 150.844C181.569 150.84 182.125 150.632 182.547 150.26L184.019 148.986L188.735 153.857H172.691L178.309 148.986ZM185.039 148.096L190.671 143.245L189.77 152.948L185.039 148.096Z" fill="white"/>
<path d="M155.056 173.436L159.28 175.055L163.926 172.056L160.435 175.951L162.997 179.363L167.059 169.859L155.056 173.436Z" fill="white"/>
<path d="M158.991 175.958L160.892 178.148H158.865L158.991 175.958Z" fill="white"/>
<path d="M157.309 178.819L156.865 178.553C156.994 178.356 157.138 178.168 157.295 177.989L157.696 178.314C157.555 178.474 157.426 178.642 157.309 178.819Z" fill="white"/>
<path d="M157.098 182.091C156.659 181.862 156.333 181.481 156.189 181.029L156.696 180.896C156.815 181.228 157.068 181.502 157.4 181.659L157.098 182.091ZM156.654 180.378L156.126 180.338C156.178 179.905 156.314 179.484 156.527 179.097L157.006 179.323C156.82 179.651 156.701 180.009 156.654 180.378V180.378Z" fill="white"/>
<path d="M167.742 183.843L167.221 183.756C167.246 183.636 167.258 183.514 167.256 183.391C167.272 183.179 167.205 182.969 167.066 182.801L167.475 182.482C167.687 182.742 167.797 183.064 167.784 183.391C167.783 183.543 167.769 183.694 167.742 183.843V183.843ZM160.259 182.695H159.709V182.197C160.129 182.217 160.55 182.217 160.97 182.197V182.695H160.259ZM161.667 182.642V182.144C162.096 182.144 162.525 182.077 162.941 182.038L162.99 182.535L161.667 182.642ZM159.055 182.642H158.836C158.466 182.596 158.101 182.518 157.745 182.409L157.914 181.938C158.237 182.039 158.569 182.111 158.907 182.15H159.111L159.055 182.642ZM166.658 182.542C166.281 182.427 165.886 182.373 165.489 182.383V181.852C165.951 181.84 166.411 181.906 166.848 182.044L166.658 182.542ZM163.596 182.482L163.546 181.984C163.997 181.945 164.433 181.911 164.835 181.892V182.389C164.461 182.389 164.032 182.422 163.588 182.462L163.596 182.482Z" fill="white"/>
<path d="M167.306 185.104L166.82 184.905C166.918 184.692 167.003 184.487 167.066 184.307L167.566 184.46C167.496 184.659 167.411 184.871 167.306 185.104Z" fill="white"/>
<path opacity="0.1" d="M186.842 101.591H170.65C170.129 101.6 169.612 101.504 169.133 101.309C168.655 101.115 168.226 100.827 167.875 100.464C167.524 100.101 167.259 99.6716 167.098 99.2045C166.936 98.7375 166.882 98.2434 166.94 97.7552L168.348 82.4903C168.459 81.4518 168.971 80.4879 169.786 79.781C170.6 79.0741 171.662 78.6732 172.769 78.6542H188.961C189.482 78.6456 189.998 78.7417 190.477 78.9361C190.955 79.1305 191.384 79.4188 191.735 79.7817C192.086 80.1447 192.351 80.574 192.513 81.041C192.674 81.508 192.728 82.0021 192.671 82.4903L191.263 97.7552C191.151 98.7938 190.639 99.7577 189.825 100.465C189.01 101.171 187.949 101.572 186.842 101.591V101.591Z" fill="black"/>
<path d="M184.73 99.6003H168.538C168.017 99.6089 167.5 99.5128 167.021 99.3184C166.543 99.124 166.114 98.8357 165.763 98.4727C165.412 98.1098 165.147 97.6805 164.986 97.2135C164.824 96.7464 164.77 96.2524 164.828 95.7642L166.236 80.4992C166.347 79.4607 166.859 78.4968 167.674 77.7899C168.488 77.083 169.55 76.6821 170.657 76.6631H186.849C187.37 76.6545 187.886 76.7506 188.365 76.945C188.843 77.1394 189.272 77.4277 189.623 77.7907C189.974 78.1536 190.239 78.5829 190.401 79.0499C190.562 79.517 190.616 80.011 190.559 80.4992L189.151 95.7642C189.039 96.8027 188.527 97.7666 187.713 98.4735C186.898 99.1804 185.837 99.5813 184.73 99.6003V99.6003Z" fill="#407BFF"/>
<path d="M185.596 91.2378C185.489 88.5517 184.376 85.9882 182.454 84.0027C180.533 82.0171 177.926 80.7382 175.099 80.3931C174.272 80.0094 173.33 79.9068 172.432 80.1027C171.534 80.2986 170.735 80.781 170.171 81.4682C168.763 83.081 170.016 84.123 171.579 85.2778C173.142 86.4327 174.543 87.3154 175.93 85.7026C176.45 85.1123 176.771 84.3889 176.852 83.6252C178.152 84.1257 179.317 84.8928 180.263 85.8709C181.21 86.849 181.913 88.0136 182.322 89.2799C181.513 89.2834 180.724 89.5145 180.055 89.9436C178.232 91.1117 179.034 92.4722 180.125 94.085C181.217 95.6978 182.188 96.9455 184.004 95.7708C184.78 95.301 185.361 94.5946 185.651 93.7696C185.94 92.9446 185.921 92.0509 185.596 91.2378V91.2378Z" fill="white"/>
<path d="M178.816 56.9183H189.869C190.418 56.9183 190.488 56.1218 189.946 56.1218H178.908C178.365 56.1218 178.288 56.9183 178.83 56.9183H178.816Z" fill="#407BFF"/>
<path d="M193.917 56.9183H197.12C197.669 56.9183 197.74 56.1218 197.197 56.1218H194.022C193.48 56.1218 193.403 56.9183 193.952 56.9183H193.917Z" fill="#407BFF"/>
<g opacity="0.3">
<path opacity="0.3" d="M178.816 56.9183H189.869C190.418 56.9183 190.488 56.1218 189.946 56.1218H178.908C178.365 56.1218 178.288 56.9183 178.83 56.9183H178.816Z" fill="white"/>
</g>
<g opacity="0.3">
<path opacity="0.3" d="M193.917 56.9183H197.12C197.669 56.9183 197.74 56.1218 197.197 56.1218H194.022C193.48 56.1218 193.403 56.9183 193.952 56.9183H193.917Z" fill="white"/>
</g>
<path d="M215.213 137.431L214.241 147.837C214.232 147.943 214.268 148.048 214.34 148.129C214.413 148.21 214.516 148.26 214.628 148.269C214.741 148.278 214.852 148.244 214.937 148.176C215.023 148.107 215.077 148.009 215.086 147.904C215.405 144.439 215.727 140.97 216.051 137.497C216.049 137.398 216.009 137.304 215.937 137.231C215.866 137.159 215.768 137.114 215.664 137.106C215.559 137.098 215.455 137.126 215.372 137.186C215.288 137.246 215.232 137.334 215.213 137.431V137.431Z" fill="#407BFF"/>
<path d="M213.889 151.647L213.615 154.64C213.616 154.739 213.657 154.834 213.728 154.906C213.8 154.978 213.897 155.023 214.002 155.031C214.106 155.04 214.21 155.011 214.293 154.951C214.377 154.891 214.433 154.804 214.452 154.707L214.727 151.72C214.727 151.621 214.688 151.525 214.617 151.451C214.546 151.378 214.448 151.332 214.344 151.323C214.239 151.314 214.134 151.342 214.05 151.402C213.966 151.462 213.908 151.549 213.889 151.647V151.647Z" fill="#407BFF"/>
<g opacity="0.3">
<path opacity="0.3" d="M215.213 137.431L214.241 147.837C214.232 147.943 214.268 148.048 214.34 148.129C214.413 148.21 214.516 148.26 214.628 148.269C214.741 148.278 214.852 148.244 214.937 148.176C215.023 148.107 215.077 148.009 215.086 147.904C215.405 144.439 215.727 140.97 216.051 137.497C216.049 137.398 216.009 137.304 215.937 137.231C215.866 137.159 215.768 137.114 215.664 137.106C215.559 137.098 215.455 137.126 215.372 137.186C215.288 137.246 215.232 137.334 215.213 137.431V137.431Z" fill="white"/>
</g>
<g opacity="0.3">
<path opacity="0.3" d="M213.889 151.647L213.615 154.64C213.616 154.739 213.657 154.834 213.728 154.906C213.8 154.978 213.897 155.023 214.002 155.031C214.106 155.04 214.21 155.011 214.293 154.951C214.377 154.891 214.433 154.804 214.452 154.707L214.727 151.72C214.727 151.621 214.688 151.525 214.617 151.451C214.546 151.378 214.448 151.332 214.344 151.323C214.239 151.314 214.134 151.342 214.05 151.402C213.966 151.462 213.908 151.549 213.889 151.647V151.647Z" fill="white"/>
</g>
<path d="M117.462 91.1183C117.462 91.1183 113.379 90.594 113.872 92.5984C114.231 94.0585 115.604 91.1847 117.462 91.1183Z" fill="#263238"/>
<path d="M113.914 95.6712C113.914 95.6712 117.279 95.6381 117.8 89.8573C117.8 89.8573 121.011 88.802 122.834 90.6869C124.657 92.5718 120.468 96.2221 122.778 98.1203C122.778 98.1203 120.468 99.3083 113.914 95.6712Z" fill="#FF8B7B"/>
<path d="M126.368 75.2494C126.368 75.2494 130.705 74.3734 131.831 77.3799C132.957 80.3864 125.411 79.0657 125.411 79.0657L126.368 75.2494Z" fill="#263238"/>
<path opacity="0.3" d="M126.368 75.2494C126.368 75.2494 130.705 74.3734 131.831 77.3799C132.957 80.3864 125.411 79.0657 125.411 79.0657L126.368 75.2494Z" fill="black"/>
<path d="M129.916 82.7425C129.987 82.3576 130.254 82.0788 130.522 82.1253C130.789 82.1717 130.951 82.5102 130.881 82.8952C130.81 83.2801 130.536 83.5589 130.275 83.519C130.015 83.4792 129.846 83.1275 129.916 82.7425Z" fill="#263238"/>
<path d="M130.127 83.4659L132.021 86.3596C131.662 86.5687 131.255 86.6951 130.835 86.7285C130.414 86.7619 129.991 86.7015 129.599 86.5521L130.127 83.4659Z" fill="#FF5652"/>
<path d="M115.787 80.8842C115.548 85.8021 115.336 87.8861 117.667 90.6537C121.377 93.6138 127.642 94.0253 129.43 89.2666C131.043 84.9924 131.162 77.6852 126.305 75.203C125.237 74.657 124.039 74.3774 122.825 74.3907C121.61 74.404 120.419 74.7098 119.366 75.279C118.312 75.8483 117.43 76.662 116.803 77.6431C116.177 78.6241 115.827 79.7398 115.787 80.8842V80.8842Z" fill="#FF8B7B"/>
<path d="M129.261 81.528C129.296 81.546 129.335 81.5554 129.374 81.5554C129.413 81.5554 129.452 81.546 129.487 81.528C129.729 81.3554 130.01 81.239 130.309 81.1883C130.607 81.1376 130.914 81.1539 131.204 81.2359C131.263 81.2577 131.329 81.2567 131.387 81.2331C131.445 81.2095 131.491 81.1652 131.514 81.1098C131.538 81.0534 131.537 80.9907 131.512 80.9349C131.487 80.8791 131.44 80.8347 131.38 80.8112C131.015 80.6994 130.627 80.6725 130.248 80.7326C129.869 80.7926 129.512 80.938 129.205 81.1563C129.179 81.1718 129.156 81.1921 129.139 81.2159C129.121 81.2397 129.109 81.2666 129.102 81.295C129.095 81.3234 129.095 81.3528 129.101 81.3814C129.106 81.41 129.118 81.4373 129.135 81.4616V81.4616C129.167 81.4971 129.212 81.5206 129.261 81.528V81.528Z" fill="#263238"/>
<path d="M111.549 96.6668C111.549 96.6668 112.999 92.8904 119.004 95.2996C125.009 97.7088 125.572 101.027 125.572 101.027L111.549 96.6668Z" fill="#263238"/>
<path opacity="0.4" d="M111.549 96.6668C111.549 96.6668 112.999 92.8904 119.004 95.2996C125.009 97.7088 125.572 101.027 125.572 101.027L111.549 96.6668Z" fill="black"/>
<path d="M114.245 168.239C114.245 168.239 113.393 175.122 112.985 177.398C112.619 179.389 101.017 231.622 101.017 231.622L95.744 230.799C95.744 230.799 95.1597 204.338 99.2218 186.823C100.06 183.239 101.742 180.239 102.355 177.498C102.847 175.301 102.101 168.505 102.101 168.505L114.245 168.239Z" fill="#FF8B7B"/>
<path d="M92.224 167.118C92.224 167.118 89.767 173.423 88.6195 175.374C87.3734 177.498 82.6426 183.279 82.6426 183.279L57.4394 216.616L52.617 213.742C52.617 213.742 59.8893 195.384 70.8435 180.438C73.4554 176.874 77.2147 174.159 79.2915 170.622C80.4672 168.591 81.4669 161.583 81.4669 161.583L92.224 167.118Z" fill="#FF8B7B"/>
<path d="M98.9824 103.297C98.9824 103.297 92.9491 110.551 93.463 113.598C93.977 116.644 103.432 120.354 103.432 120.354L105.832 117.135L99.623 112.861L105.537 106.47L98.9824 103.297Z" fill="#FF8B7B"/>
<path d="M108.958 96.0363C108.205 95.6978 104.861 94.4368 97.6448 103.277C97.6448 103.277 100.271 106.363 105.896 108.202C105.896 108.182 112.232 97.4765 108.958 96.0363Z" fill="#263238"/>
<path opacity="0.4" d="M105.896 108.182C105.896 108.182 106.952 106.403 108.008 104.2C107.839 100.41 107.346 95.7044 105.938 97.3968C104.065 99.6401 101.475 104.16 100.623 105.673C102.252 106.73 104.026 107.573 105.896 108.182V108.182Z" fill="black"/>
<path d="M100.214 125.438C107.149 128.967 114.809 131.045 122.672 131.531L114.534 174.279C114.534 174.279 91.0624 174.206 78.7917 163.215C78.7917 163.189 83.6845 139.893 100.214 125.438Z" fill="#407BFF"/>
<path d="M99.2218 125.531C99.2218 125.531 108.62 132.061 123.587 131.617C123.587 131.617 132.183 109.197 126.797 101.611C123.468 96.9256 110.683 94.8085 107.24 96.1425C103.094 97.7486 105.494 111.806 99.2218 125.531Z" fill="#263238"/>
<path opacity="0.1" d="M101.475 148.561L91.0202 170.111C94.6857 171.366 98.4526 172.34 102.284 173.025C102.284 173.025 102.636 152.895 101.475 148.561Z" fill="black"/>
<path opacity="0.4" d="M122.855 105.282L121.194 106.436C122.524 110.801 124.618 114.926 127.389 118.642C128.1 115.514 128.493 112.329 128.564 109.131L124.861 106.191L122.855 105.282Z" fill="black"/>
<path d="M132.275 108.52L137.907 115.921L152.064 116.81L154.662 114.772C154.834 114.634 155.049 114.551 155.274 114.533L162.835 113.969C162.89 113.966 162.944 113.974 162.995 113.993C163.046 114.011 163.092 114.039 163.131 114.076C163.169 114.112 163.199 114.156 163.219 114.204C163.238 114.252 163.247 114.303 163.244 114.354L163.201 114.958C163.194 115.044 163.154 115.125 163.09 115.187C163.026 115.249 162.941 115.288 162.849 115.297L159.266 115.562L158.562 119.02C158.521 119.215 158.423 119.395 158.278 119.539C158.134 119.683 157.949 119.786 157.745 119.836L154.929 120.5C154.75 120.547 154.56 120.547 154.38 120.5L152.395 120.029C152.395 120.029 141.363 122.126 136.301 121.283C131.24 120.44 126.248 112.655 126.248 112.655L132.275 108.52Z" fill="#FF8B7B"/>
<path d="M125.756 114.155C125.756 114.155 116.688 102.72 122.285 100.065C127.882 97.4101 133.76 109.157 133.76 109.157C133.76 109.157 131.465 112.463 125.756 114.155Z" fill="#263238"/>
<path d="M102.172 231.323C102.144 231.318 102.12 231.305 102.101 231.286C102.082 231.267 102.07 231.243 102.066 231.217C102.062 231.19 102.066 231.162 102.079 231.137C102.091 231.113 102.111 231.092 102.136 231.078C102.228 231.038 104.305 230.009 105.269 230.301C105.358 230.325 105.442 230.366 105.514 230.421C105.587 230.475 105.647 230.543 105.692 230.62C105.755 230.702 105.789 230.8 105.789 230.902C105.789 231.003 105.755 231.102 105.692 231.184C105.184 231.501 104.569 231.629 103.967 231.542C103.362 231.523 102.761 231.45 102.172 231.323V231.323ZM102.629 231.164C103.706 231.33 105.178 231.376 105.445 231.025C105.487 230.985 105.53 230.905 105.445 230.739C105.419 230.691 105.383 230.649 105.338 230.615C105.293 230.582 105.24 230.559 105.185 230.547C105.098 230.52 105.008 230.507 104.917 230.507C104.117 230.587 103.341 230.81 102.629 231.164V231.164Z" fill="#407BFF"/>
<path d="M102.08 231.317C102.059 231.304 102.043 231.286 102.033 231.265C102.023 231.244 102.02 231.22 102.024 231.197C102.024 231.124 102.249 229.651 103.009 229.1C103.119 229.02 103.245 228.962 103.379 228.929C103.514 228.896 103.653 228.889 103.791 228.907C104.171 228.954 104.276 229.14 104.291 229.292C104.389 229.91 102.939 231.051 102.228 231.323H102.172C102.141 231.331 102.109 231.328 102.08 231.317ZM103.685 229.146C103.512 229.138 103.341 229.19 103.206 229.292C102.75 229.75 102.455 230.33 102.362 230.952C103.066 230.573 104.058 229.677 104.037 229.299C104.037 229.266 104.037 229.173 103.77 229.146H103.685Z" fill="#407BFF"/>
<path d="M101.608 230.534L95.2723 230.308C95.1554 230.304 95.0407 230.339 94.9473 230.405C94.8538 230.472 94.7872 230.566 94.7584 230.673L93.4138 235.511C93.3556 235.716 93.3858 235.935 93.498 236.119C93.6101 236.303 93.795 236.438 94.0122 236.493C94.0727 236.503 94.1346 236.503 94.1952 236.493C96.4902 236.54 98.5318 236.493 101.39 236.6C104.762 236.719 103.889 237.064 107.853 237.263C110.239 237.376 110.774 234.834 109.768 234.675C105.156 233.965 104.727 232.624 103.002 230.998C102.612 230.69 102.117 230.525 101.608 230.534V230.534Z" fill="#263238"/>
<path d="M58.2278 216.941C58.2073 216.923 58.1925 216.899 58.1851 216.874C58.1776 216.848 58.1778 216.821 58.1856 216.795C58.1945 216.77 58.2115 216.748 58.2342 216.733C58.2569 216.717 58.2843 216.709 58.3123 216.709C58.4179 216.709 60.7622 216.709 61.4874 217.373C61.6232 217.497 61.7037 217.665 61.7126 217.844C61.7267 217.944 61.7071 218.046 61.6566 218.135C61.6061 218.225 61.5272 218.297 61.431 218.342C60.8234 218.405 60.2121 218.257 59.7133 217.923C59.1876 217.639 58.6904 217.31 58.2278 216.941V216.941ZM58.7136 216.994C59.5936 217.598 60.889 218.262 61.3114 218.069C61.3677 218.069 61.4381 218.003 61.431 217.811C61.4316 217.756 61.4193 217.702 61.3949 217.653C61.3706 217.603 61.3348 217.56 61.2902 217.525C61.2252 217.467 61.1517 217.418 61.072 217.379C60.3161 217.124 59.5161 217.005 58.7136 217.027V216.994Z" fill="#407BFF"/>
<path d="M58.1715 216.901C58.1576 216.882 58.1502 216.859 58.1502 216.835C58.1502 216.811 58.1576 216.788 58.1715 216.769C58.2138 216.715 59.1078 215.488 60.0582 215.322C60.1927 215.297 60.3311 215.297 60.4653 215.324C60.5995 215.35 60.7268 215.401 60.8397 215.474C61.1565 215.68 61.1706 215.892 61.1072 216.032C60.896 216.629 59.0586 217.034 58.2912 216.974C58.273 216.98 58.2531 216.98 58.2349 216.974C58.2045 216.959 58.1818 216.932 58.1715 216.901V216.901ZM60.6426 215.654C60.4922 215.569 60.314 215.541 60.1427 215.574C59.516 215.792 58.9754 216.185 58.5939 216.702C59.4387 216.702 60.7059 216.277 60.8819 215.939C60.8819 215.906 60.9242 215.813 60.713 215.68H60.6426V215.654Z" fill="#407BFF"/>
<path d="M58.1011 215.999L52.5325 213.092C52.4306 213.038 52.3123 213.019 52.1971 213.037C52.082 213.055 51.9768 213.109 51.8989 213.191L48.3789 216.941C48.3039 217.02 48.2461 217.111 48.2087 217.211C48.1713 217.31 48.1551 217.416 48.161 217.521C48.1669 217.626 48.1948 217.73 48.243 217.825C48.2913 217.92 48.359 218.005 48.4422 218.076L48.5901 218.176C50.6176 219.191 52.4691 220.021 54.9683 221.328C57.9181 222.868 56.9747 222.808 60.4173 224.647C62.5293 225.768 64.1907 223.724 63.367 223.153C59.5936 220.558 59.847 219.171 59.0867 216.994C58.8925 216.563 58.5436 216.211 58.1011 215.999V215.999Z" fill="#263238"/>
<path d="M124.608 85.1119C124.608 85.1119 126.72 84.4482 125.946 81.5612C125.946 81.5612 127.192 79.5701 126.995 78.5148C126.995 78.5148 133.331 75.0702 129.712 71.2938C126.093 67.5174 119.525 70.0395 116.618 74.8645C116.618 74.8645 101.165 79.6033 111.922 88.51C122.39 97.211 124.608 85.1119 124.608 85.1119Z" fill="#263238"/>
<path d="M118.23 76.8888C118.23 76.8888 115.815 71.8912 119.441 68.1147C123.066 64.3383 117.033 73.4376 118.23 76.8888Z" fill="#263238"/>
<path d="M124.608 85.1119C124.668 85.0934 124.727 85.0713 124.784 85.0455C124.784 81.3023 123.256 76.8157 117.399 73.7628C117.118 74.121 116.857 74.4932 116.618 74.8778C116.618 74.8778 116.174 75.0171 115.491 75.2826C117.519 77.3135 123.087 84.0367 116.829 91.3838C123.101 93.2289 124.608 85.1119 124.608 85.1119Z" fill="#407BFF"/>
<path d="M124.854 83.3598C125.573 84.1022 125.951 85.0832 125.903 86.0875C125.826 87.4149 124.446 87.6738 123.348 86.957C122.355 86.2933 121.201 84.8332 121.82 83.6385C121.959 83.3848 122.164 83.168 122.415 83.0079C122.666 82.8477 122.955 82.7493 123.257 82.7216C123.559 82.6939 123.863 82.7378 124.142 82.8492C124.421 82.9607 124.666 83.1362 124.854 83.3598V83.3598Z" fill="#FF8B7B"/>
<path d="M130.423 82.1319L131.564 82.0788C131.564 82.0788 130.817 82.7492 130.423 82.1319Z" fill="#263238"/>
<path opacity="0.2" d="M119.983 92.0342C120.554 93.123 121.434 94.0418 122.524 94.689C122.77 94.0868 122.984 93.4732 123.165 92.8506C122.062 92.7531 120.986 92.4769 119.983 92.0342V92.0342Z" fill="black"/>
</svg>
